<svg xmlns="http://www.w3.org/2000/svg" viewBox="0 0 180.35 119.11"><defs><style>.cls-1{fill:#fff;}.cls-2,.cls-3,.cls-5{fill:none;}.cls-2{stroke:#fe5f55;}.cls-2,.cls-3,.cls-4{stroke-miterlimit:10;}.cls-2,.cls-3{stroke-width:2px;}.cls-3{stroke:#253c78;}.cls-4{stroke:#000;stroke-width:0.75px;}</style></defs><title>Logo</title><g id="Layer_2" data-name="Layer 2"><g id="Layer_1-2" data-name="Layer 1"><rect class="cls-1" width="180.35" height="119.11" rx="14.17" ry="14.17"/><path class="cls-2" d="M165.63,54.75v28.5a8.51,8.51,0,0,1-8.5,8.5H32.5A8.51,8.51,0,0,1,24,83.25v-57a8.51,8.51,0,0,1,8.51-8.5H157.13a8.51,8.51,0,0,1,8.5,8.5V39.1"/><path class="cls-3" d="M13.6,60.75V35.6a8.5,8.5,0,0,1,8.5-8.5H146.73a8.5,8.5,0,0,1,8.5,8.5v57a8.5,8.5,0,0,1-8.5,8.5H22.1a8.5,8.5,0,0,1-8.5-8.5V76.4"/><path class="cls-4" d="M78.17,83.85a2.72,2.72,0,0,1-1.11-.2V83a4.31,4.31,0,0,0,1.1.14c1.19,0,1.78-.64,1.78-1.93V70.44h.75V81.15Q80.69,83.85,78.17,83.85Z"/><path class="cls-4" d="M93,77.37H88.58l-1.5,3.78h-.84L90.57,70.4h.48L95.3,81.15h-.85Zm-4.1-.68H92.7l-1.46-3.86c-.12-.3-.27-.72-.44-1.26a12.66,12.66,0,0,1-.44,1.28Z"/><path class="cls-4" d="M101.67,76.48v4.67h-.75V70.44h2.57a4.8,4.8,0,0,1,3,.74,2.59,2.59,0,0,1,1,2.21,2.91,2.91,0,0,1-.57,1.82,3.19,3.19,0,0,1-1.73,1.06L108,81.15h-.89l-2.78-4.67Zm0-.64h2.06a3.24,3.24,0,0,0,2.11-.61,2.14,2.14,0,0,0,.75-1.78,2.08,2.08,0,0,0-.73-1.78,4,4,0,0,0-2.4-.56h-1.79Z"/><path class="cls-4" d="M120.35,70.44h.82l-4,10.71h-.66l-4-10.71h.81L116,77.73c.41,1.1.69,1.92.83,2.47.1-.36.29-.93.58-1.7Z"/><path class="cls-4" d="M126.8,81.15V70.44h.75V81.15Z"/><path class="cls-4" d="M140.64,78.39a2.56,2.56,0,0,1-1,2.12,4.14,4.14,0,0,1-2.63.78,8.25,8.25,0,0,1-3-.43v-.75a7.67,7.67,0,0,0,3,.5,3.36,3.36,0,0,0,2.1-.61,1.9,1.9,0,0,0,.78-1.58,1.82,1.82,0,0,0-.26-1,2.28,2.28,0,0,0-.84-.73A10.18,10.18,0,0,0,137,76a5.87,5.87,0,0,1-2.28-1.22,2.6,2.6,0,0,1,.32-3.71,3.79,3.79,0,0,1,2.43-.75,7.19,7.19,0,0,1,2.86.57l-.28.64a6.7,6.7,0,0,0-2.56-.56,3,3,0,0,0-1.9.55,1.81,1.81,0,0,0-.71,1.5,1.88,1.88,0,0,0,.22,1,2,2,0,0,0,.71.69,10.51,10.51,0,0,0,1.69.73,9.1,9.1,0,0,1,1.9.83,2.71,2.71,0,0,1,.92.93A2.43,2.43,0,0,1,140.64,78.39Z"/><rect class="cls-5" x="5.09" y="9.25" width="168.96" height="100.36"/></g></g></svg>